{
    "asset" : {
        "generator" : "Khronos glTF Blender I/O v1.6.16",
        "version" : "2.0"
    },
    "scene" : 0,
    "scenes" : [
        {
            "name" : "Scene",
            "nodes" : [
                9,
                10,
                11
            ]
        }
    ],
    "nodes" : [
        {
            "mesh" : 0,
            "name" : "body.001"
        },
        {
            "children" : [
                0
            ],
            "name" : "body",
            "rotation" : [
                0.6199395060539246,
                0,
                0,
                0.7846496105194092
            ],
            "translation" : [
                -6.835651397705078,
                -4.608234882354736,
                1.1981067657470703
            ]
        },
        {
            "mesh" : 1,
            "name" : "element_mask2.001"
        },
        {
            "children" : [
                2
            ],
            "name" : "element_mask2"
        },
        {
            "mesh" : 2,
            "name" : "hood.001"
        },
        {
            "children" : [
                4
            ],
            "name" : "hood"
        },
        {
            "mesh" : 3,
            "name" : "mask1.001"
        },
        {
            "children" : [
                6
            ],
            "name" : "mask1"
        },
        {
            "children" : [
                1,
                3,
                5,
                7
            ],
            "name" : "mask_tris"
        },
        {
            "children" : [
                8
            ],
            "name" : "RootNode"
        },
        {
            "name" : "Light",
            "rotation" : [
                0.16907575726509094,
                0.7558803558349609,
                -0.27217137813568115,
                0.570947527885437
            ],
            "translation" : [
                4.076245307922363,
                5.903861999511719,
                -1.0054539442062378
            ]
        },
        {
            "name" : "Camera",
            "rotation" : [
                0.483536034822464,
                0.33687159419059753,
                -0.20870360732078552,
                0.7804827094078064
            ],
            "translation" : [
                7.358891487121582,
                4.958309173583984,
                6.925790786743164
            ]
        }
    ],
    "materials" : [
        {
            "alphaCutoff" : 0.2222224473953247,
            "alphaMode" : "MASK",
            "emissiveFactor" : [
                1,
                1,
                1
            ],
            "emissiveTexture" : {
                "index" : 0
            },
            "name" : "lambert1",
            "normalTexture" : {
                "index" : 1
            },
            "pbrMetallicRoughness" : {
                "baseColorTexture" : {
                    "index" : 2
                },
                "metallicRoughnessTexture" : {
                    "index" : 3
                }
            }
        }
    ],
    "meshes" : [
        {
            "name" : "body",
            "primitives" : [
                {
                    "attributes" : {
                        "POSITION" : 0,
                        "NORMAL" : 1,
                        "TEXCOORD_0" : 2
                    },
                    "indices" : 3,
                    "material" : 0
                }
            ]
        },
        {
            "name" : "element_mask2",
            "primitives" : [
                {
                    "attributes" : {
                        "POSITION" : 4,
                        "NORMAL" : 5,
                        "TEXCOORD_0" : 6
                    },
                    "indices" : 7,
                    "material" : 0
                }
            ]
        },
        {
            "name" : "hood",
            "primitives" : [
                {
                    "attributes" : {
                        "POSITION" : 8,
                        "NORMAL" : 9,
                        "TEXCOORD_0" : 10
                    },
                    "indices" : 11,
                    "material" : 0
                }
            ]
        },
        {
            "name" : "mask1",
            "primitives" : [
                {
                    "attributes" : {
                        "POSITION" : 12,
                        "NORMAL" : 13,
                        "TEXCOORD_0" : 14
                    },
                    "indices" : 15,
                    "material" : 0
                }
            ]
        }
    ],
    "textures" : [
        {
            "sampler" : 0,
            "source" : 0
        },
        {
            "sampler" : 0,
            "source" : 1
        },
        {
            "sampler" : 0,
            "source" : 2
        },
        {
            "sampler" : 0,
            "source" : 3
        }
    ],
    "images" : [
        {
            "bufferView" : 4,
            "mimeType" : "image/png",
            "name" : "Image_3"
        },
        {
            "bufferView" : 5,
            "mimeType" : "image/jpeg",
            "name" : "lambert1_normal"
        },
        {
            "bufferView" : 6,
            "mimeType" : "image/png",
            "name" : "lambert1_baseColor-Mask3D_lambert1_Opacity"
        },
        {
            "bufferView" : 7,
            "mimeType" : "image/jpeg",
            "name" : "lambert1_occlusionRoughnessMetallic"
        }
    ],
    "accessors" : [
        {
            "bufferView" : 0,
            "componentType" : 5126,
            "count" : 1029,
            "max" : [
                13.98060417175293,
                0.20394587516784668,
                5.992523670196533
            ],
            "min" : [
                -0.3772754669189453,
                -2.868478298187256,
                -4.84595251083374
            ],
            "type" : "VEC3"
        },
        {
            "bufferView" : 1,
            "componentType" : 5126,
            "count" : 1029,
            "type" : "VEC3"
        },
        {
            "bufferView" : 2,
            "componentType" : 5126,
            "count" : 1029,
            "type" : "VEC2"
        },
        {
            "bufferView" : 3,
            "componentType" : 5123,
            "count" : 5664,
            "type" : "SCALAR"
        },
        {
            "bufferView" : 8,
            "componentType" : 5126,
            "count" : 1749,
            "max" : [
                3.798699378967285,
                8.978068351745605,
                3.538691997528076
            ],
            "min" : [
                -3.7986996173858643,
                -1.890806794166565,
                0.010122954845428467
            ],
            "type" : "VEC3"
        },
        {
            "bufferView" : 9,
            "componentType" : 5126,
            "count" : 1749,
            "type" : "VEC3"
        },
        {
            "bufferView" : 10,
            "componentType" : 5126,
            "count" : 1749,
            "type" : "VEC2"
        },
        {
            "bufferView" : 11,
            "componentType" : 5123,
            "count" : 7776,
            "type" : "SCALAR"
        },
        {
            "bufferView" : 12,
            "componentType" : 5126,
            "count" : 1670,
            "max" : [
                5.080103397369385,
                10.311126708984375,
                2.4325902462005615
            ],
            "min" : [
                -5.087764263153076,
                -4.239500045776367,
                -4.827468395233154
            ],
            "type" : "VEC3"
        },
        {
            "bufferView" : 13,
            "componentType" : 5126,
            "count" : 1670,
            "type" : "VEC3"
        },
        {
            "bufferView" : 14,
            "componentType" : 5126,
            "count" : 1670,
            "type" : "VEC2"
        },
        {
            "bufferView" : 15,
            "componentType" : 5123,
            "count" : 9600,
            "type" : "SCALAR"
        },
        {
            "bufferView" : 16,
            "componentType" : 5126,
            "count" : 213,
            "max" : [
                3.6878387928009033,
                8.88673210144043,
                3.54445219039917
            ],
            "min" : [
                -3.7234668731689453,
                -1.7879170179367065,
                -2.384185791015625e-07
            ],
            "type" : "VEC3"
        },
        {
            "bufferView" : 17,
            "componentType" : 5126,
            "count" : 213,
            "type" : "VEC3"
        },
        {
            "bufferView" : 18,
            "componentType" : 5126,
            "count" : 213,
            "type" : "VEC2"
        },
        {
            "bufferView" : 19,
            "componentType" : 5123,
            "count" : 1152,
            "type" : "SCALAR"
        }
    ],
    "bufferViews" : [
        {
            "buffer" : 0,
            "byteLength" : 12348,
            "byteOffset" : 0
        },
        {
            "buffer" : 0,
            "byteLength" : 12348,
            "byteOffset" : 12348
        },
        {
            "buffer" : 0,
            "byteLength" : 8232,
            "byteOffset" : 24696
        },
        {
            "buffer" : 0,
            "byteLength" : 11328,
            "byteOffset" : 32928
        },
        {
            "buffer" : 0,
            "byteLength" : 12332,
            "byteOffset" : 44256
        },
        {
            "buffer" : 0,
            "byteLength" : 164691,
            "byteOffset" : 56588
        },
        {
            "buffer" : 0,
            "byteLength" : 1660457,
            "byteOffset" : 221280
        },
        {
            "buffer" : 0,
            "byteLength" : 43487,
            "byteOffset" : 1881740
        },
        {
            "buffer" : 0,
            "byteLength" : 20988,
            "byteOffset" : 1925228
        },
        {
            "buffer" : 0,
            "byteLength" : 20988,
            "byteOffset" : 1946216
        },
        {
            "buffer" : 0,
            "byteLength" : 13992,
            "byteOffset" : 1967204
        },
        {
            "buffer" : 0,
            "byteLength" : 15552,
            "byteOffset" : 1981196
        },
        {
            "buffer" : 0,
            "byteLength" : 20040,
            "byteOffset" : 1996748
        },
        {
            "buffer" : 0,
            "byteLength" : 20040,
            "byteOffset" : 2016788
        },
        {
            "buffer" : 0,
            "byteLength" : 13360,
            "byteOffset" : 2036828
        },
        {
            "buffer" : 0,
            "byteLength" : 19200,
            "byteOffset" : 2050188
        },
        {
            "buffer" : 0,
            "byteLength" : 2556,
            "byteOffset" : 2069388
        },
        {
            "buffer" : 0,
            "byteLength" : 2556,
            "byteOffset" : 2071944
        },
        {
            "buffer" : 0,
            "byteLength" : 1704,
            "byteOffset" : 2074500
        },
        {
            "buffer" : 0,
            "byteLength" : 2304,
            "byteOffset" : 2076204
        }
    ],
    "samplers" : [
        {
            "magFilter" : 9729,
            "minFilter" : 9987
        }
    ],
    "buffers" : [
        {
            "byteLength" : 2078508,
            "uri" : "data:application/octet-stream;base64,"
        }
    ]
}
